<svg width="30" height="30" viewBox="0 0 30 30" fill="none" xmlns="http://www.w3.org/2000/svg">
<path d="M26.023 1H18.459C17.3544 1 16.459 1.89543 16.459 3V10.564C16.459 11.6686 17.3544 12.564 18.459 12.564H26.023C27.1276 12.564 28.023 11.6686 28.023 10.564V3C28.023 1.89543 27.1276 1 26.023 1Z" stroke="#2D2D2D" stroke-width="2" stroke-linecap="round" stroke-linejoin="round"/>
<path d="M10.564 1H3C1.89543 1 1 1.89543 1 3V10.564C1 11.6686 1.89543 12.564 3 12.564H10.564C11.6686 12.564 12.564 11.6686 12.564 10.564V3C12.564 1.89543 11.6686 1 10.564 1Z" stroke="#2D2D2D" stroke-width="2" stroke-linecap="round" stroke-linejoin="round"/>
<path d="M26.023 16.5H18.459C17.3544 16.5 16.459 17.3954 16.459 18.5V26.064C16.459 27.1686 17.3544 28.064 18.459 28.064H26.023C27.1276 28.064 28.023 27.1686 28.023 26.064V18.5C28.023 17.3954 27.1276 16.5 26.023 16.5Z" stroke="#2D2D2D" stroke-width="2" stroke-linecap="round" stroke-linejoin="round"/>
<path d="M10.564 16.5H3C1.89543 16.5 1 17.3954 1 18.5V26.064C1 27.1686 1.89543 28.064 3 28.064H10.564C11.6686 28.064 12.564 27.1686 12.564 26.064V18.5C12.564 17.3954 11.6686 16.5 10.564 16.5Z" stroke="#2D2D2D" stroke-width="2" stroke-linecap="round" stroke-linejoin="round"/>
</svg>
